<mxfile host="Electron" modified="2024-04-22T19:53:07.131Z" agent="Mozilla/5.0 (Macintosh; Intel Mac OS X 10_15_7) AppleWebKit/537.36 (KHTML, like Gecko) draw.io/24.1.0 Chrome/120.0.6099.109 Electron/28.1.0 Safari/537.36" etag="P1MQEBvgVSUkpJiuHgB3" version="24.1.0" type="device">
  <diagram name="Page-1" id="-cqcoEwt4IE6obiHyd0c">
    <mxGraphModel dx="954" dy="631" grid="1" gridSize="10" guides="1" tooltips="1" connect="1" arrows="1" fold="1" page="1" pageScale="1" pageWidth="827" pageHeight="1169" math="0" shadow="0">
      <root>
        <mxCell id="0" />
        <mxCell id="1" parent="0" />
        <mxCell id="REYlh8SwJ1OCplsdW4Qx-6" style="edgeStyle=orthogonalEdgeStyle;rounded=0;orthogonalLoop=1;jettySize=auto;html=1;" parent="1" source="REYlh8SwJ1OCplsdW4Qx-1" target="REYlh8SwJ1OCplsdW4Qx-5" edge="1">
          <mxGeometry relative="1" as="geometry" />
        </mxCell>
        <mxCell id="REYlh8SwJ1OCplsdW4Qx-1" value="Manager" style="shape=umlActor;verticalLabelPosition=bottom;verticalAlign=top;html=1;" parent="1" vertex="1">
          <mxGeometry x="100" y="360" width="70" height="120" as="geometry" />
        </mxCell>
        <mxCell id="REYlh8SwJ1OCplsdW4Qx-7" style="edgeStyle=orthogonalEdgeStyle;rounded=0;orthogonalLoop=1;jettySize=auto;html=1;entryX=0.5;entryY=1;entryDx=0;entryDy=0;" parent="1" source="REYlh8SwJ1OCplsdW4Qx-4" target="REYlh8SwJ1OCplsdW4Qx-5" edge="1">
          <mxGeometry relative="1" as="geometry" />
        </mxCell>
        <mxCell id="REYlh8SwJ1OCplsdW4Qx-4" value="Customer" style="shape=umlActor;verticalLabelPosition=bottom;verticalAlign=top;html=1;" parent="1" vertex="1">
          <mxGeometry x="210" y="510" width="70" height="120" as="geometry" />
        </mxCell>
        <mxCell id="REYlh8SwJ1OCplsdW4Qx-5" value="EZElectronics" style="ellipse;whiteSpace=wrap;html=1;" parent="1" vertex="1">
          <mxGeometry x="320" y="380" width="120" height="80" as="geometry" />
        </mxCell>
        <mxCell id="REYlh8SwJ1OCplsdW4Qx-11" style="edgeStyle=orthogonalEdgeStyle;rounded=0;orthogonalLoop=1;jettySize=auto;html=1;entryX=1;entryY=0.5;entryDx=0;entryDy=0;" parent="1" source="REYlh8SwJ1OCplsdW4Qx-8" target="REYlh8SwJ1OCplsdW4Qx-5" edge="1">
          <mxGeometry relative="1" as="geometry" />
        </mxCell>
        <mxCell id="REYlh8SwJ1OCplsdW4Qx-8" value="Payment Service" style="shape=umlActor;verticalLabelPosition=bottom;verticalAlign=top;html=1;" parent="1" vertex="1">
          <mxGeometry x="570" y="360" width="70" height="120" as="geometry" />
        </mxCell>
        <mxCell id="SKIJhLk_WenM0qNRnuhr-2" style="edgeStyle=orthogonalEdgeStyle;rounded=0;orthogonalLoop=1;jettySize=auto;html=1;entryX=0.5;entryY=1;entryDx=0;entryDy=0;" edge="1" parent="1" source="SKIJhLk_WenM0qNRnuhr-1" target="REYlh8SwJ1OCplsdW4Qx-5">
          <mxGeometry relative="1" as="geometry" />
        </mxCell>
        <mxCell id="SKIJhLk_WenM0qNRnuhr-1" value="Supplier" style="shape=umlActor;verticalLabelPosition=bottom;verticalAlign=top;html=1;" vertex="1" parent="1">
          <mxGeometry x="480" y="510" width="70" height="120" as="geometry" />
        </mxCell>
        <mxCell id="SKIJhLk_WenM0qNRnuhr-4" style="edgeStyle=orthogonalEdgeStyle;rounded=0;orthogonalLoop=1;jettySize=auto;html=1;entryX=0.5;entryY=0;entryDx=0;entryDy=0;" edge="1" parent="1" source="SKIJhLk_WenM0qNRnuhr-3" target="REYlh8SwJ1OCplsdW4Qx-5">
          <mxGeometry relative="1" as="geometry" />
        </mxCell>
        <mxCell id="SKIJhLk_WenM0qNRnuhr-3" value="Fidelity Card" style="shape=umlActor;verticalLabelPosition=bottom;verticalAlign=top;html=1;" vertex="1" parent="1">
          <mxGeometry x="345" y="200" width="70" height="120" as="geometry" />
        </mxCell>
      </root>
    </mxGraphModel>
  </diagram>
</mxfile>
